<svg width="186" height="287" viewBox="0 0 186 287" fill="none" xmlns="http://www.w3.org/2000/svg">
<g clip-path="url(#clip0_2636_734)">
<mask id="path-1-outside-1_2636_734" maskUnits="userSpaceOnUse" x="3.5" y="169.5" width="180" height="117" fill="black">
<rect fill="white" x="3.5" y="169.5" width="180" height="117"/>
<path fill-rule="evenodd" clip-rule="evenodd" d="M46.5 282C55.06 282 60.3666 280.364 63.655 276.541C75.0092 280.629 88.5117 283 103 283C116.926 283 129.942 280.81 141.014 277.009C140.558 281.179 142.187 283.5 148 283.5C160.5 283.5 180.5 273 180.5 247C180.5 216.624 161.949 190 144 190C141.945 190 140.466 190.139 139.457 190.431C128.729 183.823 116.279 179.5 103 179.5C87.8932 179.5 73.8582 185.096 62.2128 193.285C57.7715 181.053 50.833 172.5 40.5 172.5C18.6848 172.5 6.5 200.124 6.5 230.5C6.5 260.876 24.6848 282 46.5 282Z"/>
</mask>
<path fill-rule="evenodd" clip-rule="evenodd" d="M46.5 282C55.06 282 60.3666 280.364 63.655 276.541C75.0092 280.629 88.5117 283 103 283C116.926 283 129.942 280.81 141.014 277.009C140.558 281.179 142.187 283.5 148 283.5C160.5 283.5 180.5 273 180.5 247C180.5 216.624 161.949 190 144 190C141.945 190 140.466 190.139 139.457 190.431C128.729 183.823 116.279 179.5 103 179.5C87.8932 179.5 73.8582 185.096 62.2128 193.285C57.7715 181.053 50.833 172.5 40.5 172.5C18.6848 172.5 6.5 200.124 6.5 230.5C6.5 260.876 24.6848 282 46.5 282Z" fill="white"/>
<path d="M63.655 276.541L64.6713 273.719L62.7277 273.019L61.3806 274.585L63.655 276.541ZM141.014 277.009L143.997 277.335L144.51 272.637L140.04 274.172L141.014 277.009ZM139.457 190.431L137.883 192.986L139.015 193.683L140.291 193.313L139.457 190.431ZM62.2128 193.285L59.393 194.309L60.7312 197.995L63.9385 195.739L62.2128 193.285ZM61.3806 274.585C58.9696 277.388 54.8055 279 46.5 279V285C55.3144 285 61.7635 283.341 65.9293 278.498L61.3806 274.585ZM103 280C88.8281 280 75.6723 277.68 64.6713 273.719L62.6387 279.364C74.346 283.579 88.1953 286 103 286V280ZM140.04 274.172C129.305 277.856 116.621 280 103 280V286C117.232 286 130.579 283.763 141.988 279.847L140.04 274.172ZM148 280.5C145.347 280.5 144.518 279.943 144.301 279.721C144.159 279.576 143.805 279.084 143.997 277.335L138.032 276.683C137.767 279.105 138 281.858 140.011 283.915C141.948 285.897 144.84 286.5 148 286.5V280.5ZM177.5 247C177.5 271.04 159.164 280.5 148 280.5V286.5C161.836 286.5 183.5 274.96 183.5 247H177.5ZM144 193C151.502 193 159.834 198.67 166.475 208.759C173.032 218.718 177.5 232.394 177.5 247H183.5C183.5 231.23 178.693 216.406 171.487 205.46C164.366 194.642 154.447 187 144 187V193ZM140.291 193.313C140.878 193.143 142.009 193 144 193V187C141.881 187 140.053 187.135 138.622 187.55L140.291 193.313ZM103 182.5C115.619 182.5 127.531 186.609 137.883 192.986L141.03 187.877C129.927 181.038 116.938 176.5 103 176.5V182.5ZM63.9385 195.739C75.1992 187.82 88.6436 182.5 103 182.5V176.5C87.1429 176.5 72.5173 182.371 60.4871 190.831L63.9385 195.739ZM40.5 175.5C48.7879 175.5 55.033 182.301 59.393 194.309L65.0327 192.261C60.5099 179.805 52.8781 169.5 40.5 169.5V175.5ZM9.5 230.5C9.5 215.658 12.4855 201.682 17.9597 191.533C23.4258 181.399 31.0867 175.5 40.5 175.5V169.5C28.098 169.5 18.759 177.413 12.6789 188.685C6.60692 199.942 3.5 214.967 3.5 230.5H9.5ZM46.5 279C26.9281 279 9.5 259.874 9.5 230.5H3.5C3.5 261.878 22.4414 285 46.5 285V279Z" fill="black" mask="url(#path-1-outside-1_2636_734)"/>
<path d="M47.2955 269.5C60.6859 278.37 80.6724 284 103 284C124.668 284 144.131 278.698 157.5 270.278" stroke="black" stroke-width="3" stroke-linecap="round"/>
<path d="M41.5 238C41.5 242.971 52.5 247.5 59 247.5C67 247.5 71.5 244.5 71.5 238C71.5 230 65.9036 226.5 59 226.5" stroke="black" stroke-width="3" stroke-linecap="round"/>
<path d="M171.5 235C171.5 239.971 167.077 244 158.789 244C150.5 244 147.5 239.971 147.5 235C147.5 230.029 149.096 221.5 156 221.5" stroke="black" stroke-width="3" stroke-linecap="round"/>
<path d="M95.5 79C77.9 38.2 88.1667 10.6667 95.5 2C107.9 36.8 108.667 67.8333 107.5 79H95.5Z" fill="white"/>
<path d="M55.5 4C62.5 16 75.4 49 71 85H65C52.6667 71.1667 33.5 35.6 55.5 4Z" fill="white"/>
<path d="M95.5 2C88.1667 10.6667 77.9 38.2 95.5 79H107.5M95.5 2C107.9 36.8 108.667 67.8333 107.5 79M95.5 2C90.3 55.6 101.333 75.6667 107.5 79M55.5 4C62.5 16 75.4 49 71 85M55.5 4C33.5 35.6 52.6667 71.1667 65 85H71M55.5 4C49.9 40.4 63.5 73.1667 71 85" stroke="black" stroke-width="3" stroke-linejoin="round"/>
<path d="M55.5 4C62.5 16 75.4 49 71 85C63.5 73.1667 49.9 40.4 55.5 4Z" fill="#FCAB52" stroke="black" stroke-width="3" stroke-linejoin="round"/>
<path d="M107.5 79C108.667 67.8333 107.9 36.8 95.5 2C90.3 55.6 101.333 75.6667 107.5 79Z" fill="#FCAB52" stroke="black" stroke-width="3" stroke-linejoin="round"/>
<path fill-rule="evenodd" clip-rule="evenodd" d="M179.718 176.978C180.827 181.129 181.101 186.188 180.5 191C179.5 199 173.5 206 161 207C156.061 207.309 148.455 207.6 143.357 206.025C134.684 211.586 123.962 215 115 215C105.449 215 93.2342 212.588 83.6509 207.785C73.4944 211.721 62.8247 214 52 214C15.8253 214 2 178.675 2 142.5C2 101.5 44 74.5 82.5 74.5C104.001 74.5 125.035 77.0966 139.417 85.6907C169.838 102.112 182.986 128.775 183.5 155C183.652 162.732 182.47 170.235 179.718 176.978Z" fill="white"/>
<path d="M179.718 176.978L178.329 176.411L178.139 176.878L178.269 177.365L179.718 176.978ZM180.5 191L179.012 190.814L179.012 190.814L180.5 191ZM161 207L161.094 208.497L161.107 208.496L161.12 208.495L161 207ZM143.357 206.025L143.8 204.592L143.134 204.386L142.547 204.762L143.357 206.025ZM83.6509 207.785L84.323 206.444L83.7287 206.146L83.1089 206.387L83.6509 207.785ZM139.417 85.6907L138.647 86.9783L138.675 86.9951L138.704 87.0106L139.417 85.6907ZM183.5 155L185 154.971L185 154.971L183.5 155ZM178.269 177.365C179.322 181.304 179.592 186.167 179.012 190.814L181.988 191.186C182.61 186.21 182.333 180.953 181.167 176.59L178.269 177.365ZM179.012 190.814C178.552 194.493 176.952 197.901 174.058 200.511C171.162 203.123 166.87 205.026 160.88 205.505L161.12 208.495C167.63 207.974 172.588 205.877 176.067 202.739C179.548 199.599 181.448 195.507 181.988 191.186L179.012 190.814ZM160.906 205.503C155.917 205.815 148.591 206.073 143.8 204.592L142.914 207.458C148.319 209.128 156.206 208.803 161.094 208.497L160.906 205.503ZM142.547 204.762C134.076 210.194 123.631 213.5 115 213.5V216.5C124.293 216.5 135.292 212.978 144.167 207.287L142.547 204.762ZM115 213.5C105.651 213.5 93.6713 211.129 84.323 206.444L82.9789 209.126C92.7971 214.047 105.247 216.5 115 216.5V213.5ZM83.1089 206.387C73.0993 210.266 62.6134 212.5 52 212.5V215.5C63.036 215.5 73.8895 213.177 84.193 209.184L83.1089 206.387ZM52 212.5C34.5071 212.5 22.4655 204.006 14.7222 191.046C6.93236 178.008 3.5 160.432 3.5 142.5H0.5C0.5 160.742 3.98032 178.916 12.1468 192.585C20.3598 206.331 33.3183 215.5 52 215.5V212.5ZM3.5 142.5C3.5 122.559 13.7028 105.965 28.7317 94.3103C43.7765 82.6429 63.5769 76 82.5 76V73C62.9231 73 42.4735 79.8571 26.8933 91.9397C11.2972 104.035 0.5 121.441 0.5 142.5H3.5ZM82.5 76C103.959 76 124.637 78.6063 138.647 86.9783L140.186 84.403C125.433 75.587 104.044 73 82.5 73V76ZM138.704 87.0106C168.629 103.164 181.496 129.322 182 155.029L185 154.971C184.475 128.229 171.047 101.06 140.129 84.3707L138.704 87.0106ZM182 155.029C182.149 162.594 180.991 169.888 178.329 176.411L181.107 177.545C183.949 170.582 185.155 162.871 185 154.971L182 155.029Z" fill="black"/>
<path d="M52 214C64.562 214 76.9153 210.931 88.5 205.765" stroke="black" stroke-width="3" stroke-linecap="round"/>
<path d="M115 215C127.924 215 144.507 207.899 153.33 197.5" stroke="black" stroke-width="3" stroke-linecap="round"/>
<path fill-rule="evenodd" clip-rule="evenodd" d="M139.049 174.001C137.945 173.973 137.028 174.846 137.001 175.951C136.973 177.055 137.846 177.972 138.951 177.999L179.451 178.999L179.549 175.001L139.049 174.001ZM114.143 178.894C115.189 178.539 115.749 177.403 115.394 176.357C115.039 175.311 113.903 174.751 112.857 175.106L59.8568 193.106C58.8109 193.461 58.251 194.597 58.6062 195.643C58.9614 196.689 60.0973 197.249 61.1432 196.894L114.143 178.894Z" fill="black"/>
<path d="M138 196C138 198.761 135.5 202 133.5 202C130.739 202 127.5 198 127.5 196C127.5 194 129.5 191.5 133 191C135.761 191 138 193 138 196Z" fill="black"/>
</g>
<defs>
<clipPath id="clip0_2636_734">
<rect width="186" height="287" fill="white"/>
</clipPath>
</defs>
</svg>
