<svg width="186" height="217" viewBox="0 0 186 217" fill="none" xmlns="http://www.w3.org/2000/svg">
<g clip-path="url(#clip0_2631_695)">
<path d="M95.5 79C77.9 38.2 88.1667 10.6667 95.5 2C107.9 36.8 108.667 67.8333 107.5 79H95.5Z" fill="white"/>
<path d="M55.5 4C62.5 16 75.4 49 71 85H65C52.6667 71.1667 33.5 35.6 55.5 4Z" fill="white"/>
<path d="M95.5 2C88.1667 10.6667 77.9 38.2 95.5 79H107.5M95.5 2C107.9 36.8 108.667 67.8333 107.5 79M95.5 2C90.3 55.6 101.333 75.6667 107.5 79M55.5 4C62.5 16 75.4 49 71 85M55.5 4C33.5 35.6 52.6667 71.1667 65 85H71M55.5 4C49.9 40.4 63.5 73.1667 71 85" stroke="black" stroke-width="3" stroke-linejoin="round"/>
<path d="M55.5 4C62.5 16 75.4 49 71 85C63.5 73.1667 49.9 40.4 55.5 4Z" fill="#FCAB52" stroke="black" stroke-width="3" stroke-linejoin="round"/>
<path d="M107.5 79C108.667 67.8333 107.9 36.8 95.5 2C90.3 55.6 101.333 75.6667 107.5 79Z" fill="#FCAB52" stroke="black" stroke-width="3" stroke-linejoin="round"/>
<path fill-rule="evenodd" clip-rule="evenodd" d="M179.718 176.978C180.827 181.129 181.101 186.188 180.5 191C179.5 199 173.5 206 161 207C156.061 207.309 148.455 207.6 143.357 206.025C134.684 211.586 123.962 215 115 215C105.449 215 93.2342 212.588 83.6509 207.785C73.4944 211.721 62.8247 214 52 214C15.8253 214 2 178.675 2 142.5C2 101.5 44 74.5 82.5 74.5C104.001 74.5 125.035 77.0966 139.417 85.6907C169.838 102.112 182.986 128.775 183.5 155C183.652 162.732 182.47 170.235 179.718 176.978Z" fill="white"/>
<path d="M179.718 176.978L178.329 176.411L178.139 176.878L178.269 177.365L179.718 176.978ZM180.5 191L179.012 190.814L179.012 190.814L180.5 191ZM161 207L161.094 208.497L161.107 208.496L161.12 208.495L161 207ZM143.357 206.025L143.8 204.592L143.134 204.386L142.547 204.762L143.357 206.025ZM83.6509 207.785L84.323 206.444L83.7287 206.146L83.1089 206.387L83.6509 207.785ZM139.417 85.6907L138.647 86.9783L138.675 86.9951L138.704 87.0106L139.417 85.6907ZM183.5 155L185 154.971L185 154.971L183.5 155ZM178.269 177.365C179.322 181.304 179.592 186.167 179.012 190.814L181.988 191.186C182.61 186.21 182.333 180.953 181.167 176.59L178.269 177.365ZM179.012 190.814C178.552 194.493 176.952 197.901 174.058 200.511C171.162 203.123 166.87 205.026 160.88 205.505L161.12 208.495C167.63 207.974 172.588 205.877 176.067 202.739C179.548 199.599 181.448 195.507 181.988 191.186L179.012 190.814ZM160.906 205.503C155.917 205.815 148.591 206.073 143.8 204.592L142.914 207.458C148.319 209.128 156.206 208.803 161.094 208.497L160.906 205.503ZM142.547 204.762C134.076 210.194 123.631 213.5 115 213.5V216.5C124.293 216.5 135.292 212.978 144.167 207.287L142.547 204.762ZM115 213.5C105.651 213.5 93.6713 211.129 84.323 206.444L82.9789 209.126C92.7971 214.047 105.247 216.5 115 216.5V213.5ZM83.1089 206.387C73.0993 210.266 62.6134 212.5 52 212.5V215.5C63.036 215.5 73.8895 213.177 84.193 209.184L83.1089 206.387ZM52 212.5C34.5071 212.5 22.4655 204.006 14.7222 191.046C6.93236 178.008 3.5 160.432 3.5 142.5H0.5C0.5 160.742 3.98032 178.916 12.1468 192.585C20.3598 206.331 33.3183 215.5 52 215.5V212.5ZM3.5 142.5C3.5 122.559 13.7028 105.965 28.7317 94.3103C43.7765 82.6429 63.5769 76 82.5 76V73C62.9231 73 42.4735 79.8571 26.8933 91.9397C11.2972 104.035 0.5 121.441 0.5 142.5H3.5ZM82.5 76C103.959 76 124.637 78.6063 138.647 86.9783L140.186 84.403C125.433 75.587 104.044 73 82.5 73V76ZM138.704 87.0106C168.629 103.164 181.496 129.322 182 155.029L185 154.971C184.475 128.229 171.047 101.06 140.129 84.3707L138.704 87.0106ZM182 155.029C182.149 162.594 180.991 169.888 178.329 176.411L181.107 177.545C183.949 170.582 185.155 162.871 185 154.971L182 155.029Z" fill="black"/>
<path d="M52 214C64.562 214 76.9153 210.931 88.5 205.765" stroke="black" stroke-width="3" stroke-linecap="round"/>
<path d="M115 215C127.924 215 144.507 207.899 153.33 197.5" stroke="black" stroke-width="3" stroke-linecap="round"/>
<path fill-rule="evenodd" clip-rule="evenodd" d="M139.049 174.001C137.945 173.973 137.028 174.846 137.001 175.951C136.973 177.055 137.846 177.972 138.951 177.999L179.451 178.999L179.549 175.001L139.049 174.001ZM114.143 178.894C115.189 178.539 115.749 177.403 115.394 176.357C115.039 175.311 113.903 174.751 112.857 175.106L59.8569 193.106C58.811 193.461 58.2511 194.597 58.6063 195.643C58.9615 196.689 60.0973 197.249 61.1432 196.894L114.143 178.894Z" fill="black"/>
<path d="M138 196C138 198.761 135.5 202 133.5 202C130.739 202 127.5 198 127.5 196C127.5 194 129.5 191.5 133 191C135.761 191 138 193 138 196Z" fill="black"/>
</g>
<defs>
<clipPath id="clip0_2631_695">
<rect width="186" height="217" fill="white"/>
</clipPath>
</defs>
</svg>
