<svg width="400" height="400" viewBox="0 0 400 400" fill="none" xmlns="http://www.w3.org/2000/svg">
<path d="M257.341 254.026L262.644 259.33L267.947 254.026L337.551 184.422C371.233 150.74 371.233 96.1306 337.551 62.4486C303.869 28.7665 249.26 28.7665 215.578 62.4486L145.974 132.053L140.67 137.356L145.974 142.659L257.341 254.026ZM212.264 59.1343C247.776 23.6219 305.353 23.6219 340.866 59.1343C376.378 94.6468 376.378 152.224 340.866 187.736L187.736 340.866C152.224 376.378 94.6468 376.378 59.1343 340.866C23.6219 305.353 23.6219 247.776 59.1343 212.264L212.264 59.1343Z" fill="white" fill-opacity="0.5" stroke="white" stroke-width="15"/>
</svg>
