<svg width="400" height="400" viewBox="0 0 400 400" fill="none" xmlns="http://www.w3.org/2000/svg">
<path d="M46.4579 181.034C46.4579 181.034 201.255 117.506 254.94 95.1356C275.521 86.1883 345.313 57.5546 345.313 57.5546C345.313 57.5546 377.526 45.0285 374.841 75.4504C373.946 87.9778 366.788 131.821 359.63 179.245C348.892 246.353 337.26 319.724 337.26 319.724C337.26 319.724 335.471 340.305 320.26 343.884C305.049 347.463 279.994 331.358 275.521 327.778C271.941 325.094 208.412 284.828 185.148 265.143C178.885 259.775 171.727 249.038 186.042 236.511C218.255 206.983 256.73 170.297 279.994 147.033C290.732 136.295 301.469 111.242 256.73 141.664C193.201 185.508 130.567 226.668 130.567 226.668C130.567 226.668 116.25 235.615 89.4072 227.562C62.563 219.51 31.2457 208.772 31.2457 208.772C31.2457 208.772 9.77233 195.351 46.4579 181.034Z" fill="white"/>
</svg>
